PathFileType	4	(X/Y/Z)	/home/abdul/Desktop/myosuite/custom_workspace/IK/output/S12_12_1.trc
DataRate	CameraRate	NumFrames	NumMarkers	Units	OrigDataRate	OrigDataStartFrame	OrigNumFrames
200.0	200.0	56	3	mm	200.0	1302	2082
Frame#	Time	V_Shoulder			V_Elbow			V_Wrist		
		X1	Y1	Z1	X2	Y2	Z2	X3	Y3	Z3

1302	6.505	-12.315669847067541	715.7533793483467	268.24210752407583	-81.22995182308888	603.2618804341869	19.10206902530739	-53.82628184818016	363.0202890489948	87.32222204672408
1303	6.51	-12.335003247702893	715.4920419308141	268.24212988820597	-81.23700936563948	603.0350456430018	19.16184661156087	-53.822802072837305	362.4053034176269	86.6190832675575
1304	6.515	-12.3544879457853	715.2292966883132	268.2420790399387	-81.24253647443085	602.8062471944128	19.22172272724472	-53.810808656616615	361.7935594736109	85.92512315404
1305	6.52	-12.374126788256005	714.9651843041505	268.2419321635173	-81.24645009917218	602.5755790577882	19.28158849394008	-53.79010115700842	361.18508027162613	85.24000370974377
1306	6.525	-12.393922350606452	714.6997458511895	268.2416663945266	-81.24867141144331	602.343140246601	19.341334388131312	-53.7604987576913	360.5798994591677	84.56338573891381
1307	6.53	-12.413876916651787	714.4330228530584	268.2412588976045	-81.24912603229065	602.109034685906	19.40085048514559	-53.72184086038858	359.9780610633867	83.89492976812744
1308	6.535	-12.4339924597729	714.1650573439846	268.24068694396124	-81.24774424671855	601.8733710642795	19.460026704210357	-53.67398761124265	359.3796192446566	83.23429695388663
1309	6.54	-12.454270625637198	713.8958919270144	268.23992798850975	-81.24446120450392	601.6362626704781	19.51875305430222	-53.61682036065724	358.78463801777366	82.58114997449935
1310	6.545	-12.474712716402175	713.6255698303848	268.2389597464134	-81.23921710679957	601.3978272151276	19.57691988045248	-53.55024205578164	358.19319094180076	81.93515390463949
1311	6.55	-12.495319676399825	713.3541349618163	268.23776026886014	-81.2319573780322	601.1581866378126	19.634418110163853	-53.474177565034495	357.6053607796505	81.29597707100572
1312	6.555	-12.51609207929421	713.0816319605095	268.2363080178744	-81.22263282264046	600.9174668999899	19.69113949958062	-53.3885739342866	357.02123912859577	80.66329188753119
1313	6.56	-12.537030116698974	712.8081062466377	268.2345819399811	-81.21119976624007	600.6757977641992	19.74697687904025	-53.29340057454134	356.4409260229801	80.03677566862478
1314	6.565	-12.558133588236599	712.5336040681277	268.2325615385392	-81.19762018084434	600.4333125601038	19.801824397618947	-53.18864938116767	355.8645295104788	79.41611141895564
1315	6.57	-12.579401893016085	712.2581725445428	268.2302269445665	-81.18186179381135	600.1901479379394	19.855577766266556	-53.074334784952924	355.29216520334285	78.80098859832111
1316	6.575	-12.600834022501422	711.9818597078856	268.22755898588053	-81.16389818023168	599.9464436100025	19.908134499108336	-52.95049373545035	354.72395580612556	78.19110386017046
1317	6.58	-12.622428554738816	711.7047145401484	268.2245392543846	-81.14370883851467	599.7023420808532	19.95939415247233	-52.81718561729933	354.1600306214615	77.58616176238702
1318	6.585	-12.644183649906916	711.4267870074522	268.22115017133143	-81.12127924897571	599.4579883669611	20.009258561181856	-52.67449210039238	353.6005250355307	76.98587544896637
1319	6.59	-12.666097047150643	711.1481280906268	268.2173750504053	-81.09660091527174	599.2135297065578	20.057632071633293	-52.52251692495418	353.0455799848984	76.38996730126286
1320	6.595	-12.688166062656107	710.8687898120955	268.213198158462	-81.06967138857753	598.9691152605074	20.104421771160208	-52.36138562278108	352.4953414064734	75.79816955751605
1321	6.6	-12.710387588921208	710.5888252589397	268.2086047737769	-81.04049427444221	598.7248958050441	20.14953771316603	-52.19124517606575	351.9499596723797	75.21022489941008
1322	6.605	-12.732758095174185	710.3082886020284	268.20358124165404	-81.00907922231102	598.4810234172597	20.192893137489758	-52.0122636154005	351.40958901157353	74.6258870044647
1323	6.61	-12.755273628890043	710.0272351111203	268.1981150272533	-80.97544189774476	598.2376511542589	20.234404685452386	-51.8246295587128	350.87438692008186	74.04492106310627
1324	6.615	-12.77792981835322	709.7457211658419	268.1921947655033	-80.93960393741648	597.9949327269305	20.273992609016634	-51.628551693038496	350.3445135617666	73.46710425932184
1325	6.62	-12.800721876213261	709.463804262477	268.1858103079673	-80.90159288701265	597.7530221693105	20.311580973479106	-51.42425820118156	349.82013116154974	72.89222621385875
1326	6.625	-12.823644603979323	709.1815430165008	268.17895276654116	-80.8614421222135	597.5120735045302	20.347097853102785	-51.2119961354431	349.3014033930523	72.32008938899705
1327	6.63	-12.846692397398334	708.8989971608133	268.1716145538655	-80.81919075297512	597.272240408375	20.380475519088964	-50.99203074072778	348.78849476262155	71.75050945399255
1328	6.635	-12.869859252661493	708.6162275396376	268.163789420343	-80.77488351138358	597.0336758714806	20.41165061928172	-50.764644729451284	348.28156999172677	71.1833156103648
1329	6.64	-12.893138773383328	708.3332960980619	268.1554724876576	-80.72857062339907	596.7965318612196	20.440564348994787	-50.530137510779376	347.78079339971305	70.6183508762864
1330	6.645	-12.916524178297772	708.050265867218	268.14666027870004	-80.68030766485518	596.5609589843316	20.467162612351018	-50.28882437682596	347.2863282888983	70.05547232941906
1331	6.65	-12.94000830961628	707.7672009450993	268.1373507438128	-80.63015540212594	596.3271061513586	20.491396173528116	-50.04103564852584	346.7983363339963	69.49455130763552
1332	6.655	-12.96358364199334	707.4841664730417	268.1275432832727	-80.57817961791888	596.0951202439467	20.513220797311586	-49.78711578397639	346.3169769778338	68.93547356716786
1333	6.66	-12.987242292045991	707.201228607894	268.11723876594056	-80.52445092269882	595.8651457860741	20.532597378366873	-49.527422452111836	345.84240683531175	68.37813939782856
1334	6.665	-13.010976028374849	706.9184544899275	268.10643954401337	-80.46904455229203	595.6373246202569	20.5494920586578	-49.262325574634936	345.37477910753864	67.82246369506281
1335	6.67	-13.034776282035628	706.6359122065386	268.0951494638237	-80.41204015226363	595.4117955897738	20.563876332457085	-48.99220633918229	344.91424300803214	67.2683759887082
1336	6.675	-13.058634157411612	706.3536707518193	268.08337387264004	-80.35352154970481	595.1886942279361	20.575727138418127	-48.71745618674306	344.4609432028502	66.71582042846
1337	6.68	-13.08254044343933	706.0717999820731	268.07111962142994	-80.29357651310717	594.9681524554101	20.585026938204223	-48.43847577638557	344.01501926647126	66.16475572616699
1338	6.685	-13.106485625141469	705.7903705673762	268.0583950635592	-80.23229650104155	594.7502982865745	20.59176378120267	-48.155673930373425	343.5766051551925	65.61515505521399
1339	6.69	-13.130459895423224	705.5094539392866	268.04521004940574	-80.16977640039696	594.5352555458733	20.595931354886535	-47.86946656277142	343.1458286997654	65.067005907381
1340	6.695	-13.15445316709029	705.2291222348243	268.03157591688097	-80.10611425497112	594.3231435950861	20.59752902042607	-47.58027559465294	342.72281111892335	64.52030990770633
1341	6.7	-13.178455085049078	704.9494482368468	268.01750547785804	-80.04141098523883	594.1140770724128	20.596561833194762	-47.288527859024704	342.30766655539304	63.97508258801933
1342	6.705	-13.202455038652053	704.6705053109655	268.003013000517	-79.97577010015564	593.9081656442231	20.593040547861808	-46.994653998581285	341.9005016359064	63.43135311994959
1343	6.71	-13.226442174153561	704.3923673391491	267.9881141876281	-79.9092974018845	593.7055137702852	20.586981607812845	-46.69908735939193	341.5014150566544	62.8891640083592
1344	6.715	-13.250405407243962	704.1151086501796	267.9728261508033	-79.84210068435864	593.5062204832391	20.57840711869421	-46.40226288360561	341.1104971955399	62.34857074628566
1345	6.72	-13.274333435632466	703.8388039471262	267.95716738075623	-79.77428942661906	593.3103791830363	20.567344805932276	-46.10461600423686	340.72782975249413	61.80964143262174
1346	6.725	-13.298214751651692	703.5635282320205	267.94115771362215	-79.70597448188525	593.1180774470114	20.55382795613858	-45.8065815450659	340.3534854190328	61.2724563538955
1347	6.73	-13.322037654859512	703.2893567279181	267.9248182933997	-79.63726776333596	592.9293968562002	20.537895342372618	-45.50859262865042	339.98752757812133	60.73710753164762
1348	6.735	-13.345790264616388	703.0163647985424	267.908171530585	-79.56828192759124	592.7444128384611	20.519591133297702	-45.21107959540538	339.63001003531883	60.20369823703258
1349	6.74	-13.369460532618996	702.7446278657156	267.8912410570813	-79.49913005689831	592.5631945288974	20.498964786330124	-44.91446893665952	339.2809767820584	59.67234247439535
1350	6.745	-13.393036255373516	702.474221324782	267.87405167747625	-79.42992534103124	592.3858046480148	20.476070924948214	-44.61918224454376	338.94046179180714	59.14316443569393
1351	6.75	-13.416505086594569	702.2052204582443	267.8566293167896	-79.3607807599194	592.2122993979903	20.450969200394916	-44.32563518150806	338.60848884973285	58.6162979277505
1352	6.755	-13.439854549518197	701.9377003478294	267.83900096480426	-79.291808768019	592.0427283773552	20.423724138074927	-44.0342364721982	338.285071416382	58.091885774418124
1353	6.76	-13.463072049119852	701.671735785212	267.82119461710334	-79.22312098143908	591.8771345143352	20.394404969014957	-43.7453869203536	337.9702125257472	57.570079195846574
1354	6.765	-13.486144884230654	701.4074011816268	267.8032392129466	-79.15482786882635	591.7155540190208	20.363085446822616	-43.459478453311405	337.6639047179772	57.05103716711761
1355	6.77	-13.509060259547612	701.1447704765992	267.7851645701278	-79.08703844700175	591.5580163544697	20.329843650645483	-43.176893196619915	337.36613000685077	56.534925758597495
1356	6.775	-13.531805297535646	700.883917046032	267.76700131696526	-79.0198599823273	591.4045442267768	20.294761774696717	-42.89800258117734	337.07685988200524	56.02191746042075
1357	6.78	-13.554367050221481	700.624913609889	267.74878082158585	-78.95339769876219	591.2551535940772	20.257925904976403	-42.62316648521851	336.79605534577615	55.512190493575574
